<svg width="1200" height="1200" viewBox="0 0 1200 1200" xmlns="http://www.w3.org/2000/svg" role="img" aria-label="Ocean Waves cover">
  <defs>
    <linearGradient id="bg" x1="0%" y1="0%" x2="100%" y2="100%">
      <stop offset="0%" stop-color="#050A14"/>
      <stop offset="100%" stop-color="#0A0F1C"/>
    </linearGradient>
    <radialGradient id="glow1" cx="30%" cy="30%" r="55%">
      <stop offset="0%" stop-color="#3D7CFF" stop-opacity="0.7"/>
      <stop offset="100%" stop-color="#3D7CFF" stop-opacity="0"/>
    </radialGradient>
    <radialGradient id="glow2" cx="70%" cy="60%" r="50%">
      <stop offset="0%" stop-color="#8A3DFF" stop-opacity="0.6"/>
      <stop offset="100%" stop-color="#8A3DFF" stop-opacity="0"/>
    </radialGradient>
    <linearGradient id="wave" x1="0%" y1="0%" x2="100%" y2="0%">
      <stop offset="0%" stop-color="#3D7CFF"/>
      <stop offset="50%" stop-color="#35C2FF"/>
      <stop offset="100%" stop-color="#8A3DFF"/>
    </linearGradient>
  </defs>
  <rect width="1200" height="1200" fill="url(#bg)"/>
  <rect width="1200" height="1200" fill="url(#glow1)"/>
  <rect width="1200" height="1200" fill="url(#glow2)"/>
  <g opacity="0.9">
    <path d="M0 760 Q160 720 320 780 T640 760 T960 800 T1200 760 L1200 1200 L0 1200 Z" fill="url(#wave)" fill-opacity="0.28"/>
    <path d="M0 700 Q200 660 400 720 T700 700 T1000 740 T1200 700 L1200 1200 L0 1200 Z" fill="url(#wave)" fill-opacity="0.32"/>
    <path d="M0 640 Q220 600 440 660 T760 640 T1060 680 T1200 640 L1200 1200 L0 1200 Z" fill="url(#wave)" fill-opacity="0.4"/>
  </g>
  <g opacity="0.6">
    <circle cx="220" cy="360" r="120" fill="#3D7CFF" fill-opacity="0.2"/>
    <circle cx="900" cy="420" r="150" fill="#35C2FF" fill-opacity="0.18"/>
    <circle cx="650" cy="300" r="110" fill="#8A3DFF" fill-opacity="0.14"/>
  </g>
  <g stroke="url(#wave)" stroke-width="3" stroke-linecap="round" opacity="0.4">
    <polyline points="80,520 200,560 320,520 440,560 560,520 680,560 800,520 920,560 1040,520"/>
    <polyline points="120,470 240,510 360,470 480,510 600,470 720,510 840,470 960,510 1080,470"/>
  </g>
</svg>

